<svg width="700" height="750" viewBox="0 0 700 750" fill="none" xmlns="http://www.w3.org/2000/svg">
<rect width="700" height="750" rx="85" fill="black"/>
<path d="M150 181H240V456H150V181Z" fill="#CC0000"/>
<path d="M460 181H550V456H460V181Z" fill="#CC0000"/>
<path d="M240 288.94C185.778 324.715 150 386.18 150 456C150 566.457 239.543 656 350 656C460.457 656 550 566.457 550 456C550 386.18 514.222 324.715 460 288.94V456C460 516.751 410.751 566 350 566C289.249 566 240 516.751 240 456V288.94Z" fill="#CC0000"/>
<path d="M504.5 93L601.928 224.25H407.072L504.5 93Z" fill="#CC0000"/>
</svg>
